<svg width="768" height="200" viewBox="0 0 768 200" fill="none" xmlns="http://www.w3.org/2000/svg">
<path d="M242.13 629.09L828.967 153.405C830.971 151.78 831.277 148.831 829.649 146.823L596.049 -141.361C594.421 -143.37 591.473 -143.681 589.468 -142.056L2.63155 333.628C0.627005 335.253 0.32149 338.202 1.9496 340.211L235.549 628.395C237.177 630.403 240.125 630.714 242.13 629.09ZM169.328 384.866C186.956 384.372 204.054 392.074 215.345 406.003C226.636 419.932 230.632 438.254 226.501 455.398L169.328 384.866ZM246.102 494.427L181.462 546.823L167.895 530.085L193.983 508.938C195.987 507.313 196.293 504.364 194.665 502.356L116.798 406.294C115.17 404.286 112.222 403.974 110.217 405.599L84.1294 426.746L70.5618 410.008L135.201 357.612L246.102 494.427ZM161.996 522.807L90.0284 434.023L112.485 415.82L184.452 504.604L161.996 522.807ZM383.577 196.341C407.819 179.777 441.249 184.346 460.102 207.605C478.956 230.863 476.507 264.515 455.285 284.805L383.577 196.341ZM448.022 290.692C423.779 307.256 390.349 302.687 371.496 279.428C352.643 256.17 355.091 222.518 376.314 202.228L448.022 290.692ZM741.57 53.0099L719.113 71.2131L647.146 -17.5709L669.602 -35.7741L741.57 53.0099ZM663.703 -43.0514L637.615 -21.9047C635.611 -20.2798 635.305 -17.3309 636.933 -15.3224L714.8 80.7389C716.428 82.7475 719.376 83.0589 721.381 81.434L747.469 60.2873L761.037 77.0252L696.397 129.421L585.497 -7.39345L650.136 -59.7894L663.703 -43.0514ZM644.237 -67.0668L575.966 -11.7272C573.962 -10.1024 573.656 -7.1535 575.284 -5.14495L597.252 21.956C588.559 44.2214 592.46 69.494 607.538 88.0949C622.604 106.681 646.534 115.743 670.104 111.832L692.084 138.947C693.712 140.956 696.66 141.267 698.665 139.642L766.935 84.3026L819.436 149.071L533.281 381.026L461.195 292.097C486.415 268.543 489.463 228.979 467.365 201.718C445.268 174.457 405.93 169.25 377.666 189.049L305.58 100.12L591.736 -131.835L644.237 -67.0668ZM663.132 103.23C644.694 104.476 626.599 96.7625 614.801 82.2077C603.015 67.6675 599.201 48.3532 604.236 30.5724L663.132 103.23ZM298.318 106.007L370.403 194.936C345.183 218.491 342.135 258.055 364.233 285.316C386.331 312.577 425.669 317.783 453.932 297.984L526.018 386.914L239.862 618.869L187.361 554.1L255.632 498.76C257.637 497.136 257.942 494.187 256.314 492.178L233.627 464.189C241.31 442.43 237.214 418.135 222.608 400.116C208.002 382.097 185.069 373.047 162.202 376.075L139.514 348.086C137.886 346.078 134.938 345.766 132.933 347.391L64.6628 402.731L12.1619 337.962L298.318 106.007Z" fill="white"/>
</svg>
