<?xml version="1.0" encoding="UTF-8"?>
<svg xmlns="http://www.w3.org/2000/svg" xmlns:xlink="http://www.w3.org/1999/xlink" width="2618px" height="1302px" viewBox="0 0 2618 1302" version="1.1">
<g id="surface1">
<path style=" stroke:none;fill-rule:nonzero;fill:rgb(45.882353%,45.882353%,45.882353%);fill-opacity:1;" d="M 2602 0 L 16.003906 0 C 7.167969 0 0 7.183594 0 16.035156 L 0 1285.964844 C 0 1294.816406 7.167969 1302 16.003906 1302 L 2602 1302 C 2610.839844 1302 2618 1294.816406 2618 1285.964844 L 2618 16.035156 C 2618 7.183594 2610.839844 0 2602 0 Z M 2269.140625 806.40625 C 2221.199219 769.71875 2192.339844 712.378906 2192.339844 651 C 2192.339844 589.621094 2221.199219 532.28125 2269.140625 495.59375 Z M 2301.160156 349.550781 L 2586 349.550781 L 2586 423.308594 L 2471.039062 423.308594 C 2462.199219 423.308594 2455.039062 430.492188 2455.039062 439.34375 L 2455.039062 862.65625 C 2455.039062 871.507812 2462.199219 878.691406 2471.039062 878.691406 L 2586 878.691406 L 2586 952.449219 L 2301.160156 952.449219 Z M 2586 455.378906 L 2586 846.621094 L 2487.039062 846.621094 L 2487.039062 455.378906 Z M 1292.996094 845.914062 C 1192.820312 837.707031 1113.769531 753.492188 1113.769531 651 C 1113.769531 548.507812 1192.820312 464.292969 1292.996094 456.085938 Z M 1325.003906 456.085938 C 1425.179688 464.292969 1504.230469 548.507812 1504.230469 651 C 1504.230469 753.492188 1425.179688 837.707031 1325.003906 845.914062 Z M 32.003906 455.378906 L 130.964844 455.378906 L 130.964844 846.621094 L 32.003906 846.621094 Z M 32.003906 878.691406 L 146.964844 878.691406 C 155.800781 878.691406 162.96875 871.507812 162.96875 862.65625 L 162.96875 439.34375 C 162.96875 430.492188 155.800781 423.308594 146.964844 423.308594 L 32.003906 423.308594 L 32.003906 349.550781 L 316.847656 349.550781 L 316.847656 952.449219 L 32.003906 952.449219 Z M 32.003906 984.519531 L 332.851562 984.519531 C 341.683594 984.519531 348.855469 977.335938 348.855469 968.480469 L 348.855469 849.058594 C 419.96875 808.585938 464.070312 732.96875 464.070312 651 C 464.070312 569.097656 419.96875 493.414062 348.855469 453.007812 L 348.855469 333.519531 C 348.855469 324.664062 341.683594 317.480469 332.851562 317.480469 L 32.003906 317.480469 L 32.003906 32.070312 L 1292.996094 32.070312 L 1292.996094 423.953125 C 1175.15625 432.226562 1081.765625 530.871094 1081.765625 651 C 1081.765625 771.128906 1175.15625 869.773438 1292.996094 878.046875 L 1292.996094 1269.933594 L 32.003906 1269.933594 Z M 348.855469 490.910156 C 400.574219 527.34375 432.066406 586.863281 432.066406 651 C 432.066406 715.074219 400.574219 774.65625 348.855469 811.089844 Z M 1325.003906 1269.933594 L 1325.003906 878.046875 C 1442.84375 869.773438 1536.234375 771.128906 1536.234375 651 C 1536.234375 530.871094 1442.84375 432.226562 1325.003906 423.953125 L 1325.003906 32.070312 L 2586 32.070312 L 2586 317.480469 L 2285.140625 317.480469 C 2276.320312 317.480469 2269.140625 324.664062 2269.140625 333.519531 L 2269.140625 456.855469 C 2201.800781 498.160156 2160.339844 571.597656 2160.339844 651 C 2160.339844 730.402344 2201.800781 803.902344 2269.140625 845.144531 L 2269.140625 968.480469 C 2269.140625 977.335938 2276.320312 984.519531 2285.140625 984.519531 L 2586 984.519531 L 2586 1269.933594 Z M 1325.003906 1269.933594 "/>
</g>
</svg>
