<svg width="1309" height="651" viewBox="0 0 1309 651" fill="none" xmlns="http://www.w3.org/2000/svg">
<path d="M1301 0H8.00122C3.58455 0 0 3.59172 0 8.01724V642.983C0 647.408 3.58455 651 8.00122 651H1301C1305.42 651 1309 647.408 1309 642.983V8.01724C1309 3.59172 1305.42 0 1301 0ZM1134.57 403.203C1110.6 384.86 1096.17 356.19 1096.17 325.5C1096.17 294.81 1110.6 266.14 1134.57 247.797V403.203ZM1150.58 174.776H1293V211.655H1235.52C1231.1 211.655 1227.52 215.247 1227.52 219.672V431.328C1227.52 435.753 1231.1 439.345 1235.52 439.345H1293V476.224H1150.58V174.776ZM1293 227.69V423.31H1243.52V227.69H1293ZM646.499 422.958C596.411 418.853 556.885 376.746 556.885 325.5C556.885 274.254 596.411 232.147 646.499 228.042V422.958ZM662.501 228.042C712.589 232.147 752.115 274.254 752.115 325.5C752.115 376.746 712.589 418.853 662.501 422.958V228.042ZM16.0024 227.69H65.482V423.31H16.0024V227.69ZM16.0024 439.345H73.4832C77.8999 439.345 81.4845 435.753 81.4845 431.328V219.672C81.4845 215.247 77.8999 211.655 73.4832 211.655H16.0024V174.776H158.424V476.224H16.0024V439.345ZM16.0024 492.259H166.425C170.842 492.259 174.427 488.667 174.427 484.241V424.529C209.984 404.293 232.035 366.484 232.035 325.5C232.035 284.548 209.984 246.707 174.427 226.503V166.759C174.427 162.333 170.842 158.741 166.425 158.741H16.0024V16.0345H646.499V211.976C587.578 216.113 540.883 265.435 540.883 325.5C540.883 385.565 587.578 434.887 646.499 439.024V634.966H16.0024V492.259ZM174.427 245.456C200.287 263.671 216.033 293.431 216.033 325.5C216.033 357.537 200.287 387.329 174.427 405.544V245.456ZM662.501 634.966V439.024C721.422 434.887 768.117 385.565 768.117 325.5C768.117 265.435 721.422 216.113 662.501 211.976V16.0345H1293V158.741H1142.57C1138.16 158.741 1134.57 162.333 1134.57 166.759V228.427C1100.9 249.08 1080.17 285.799 1080.17 325.5C1080.17 365.201 1100.9 401.952 1134.57 422.573V484.241C1134.57 488.667 1138.16 492.259 1142.57 492.259H1293V634.966H662.501Z" fill="#757575"/>
</svg>
