<svg width="153" height="165" viewBox="0 0 153 165" fill="none" xmlns="http://www.w3.org/2000/svg">
<path d="M151.089 121.829C147.966 117.533 119.268 95.2979 111.913 89.8674C110.203 88.5976 108.312 86.3731 106.062 88.6066C103.811 90.84 102.515 93.2626 104.865 96.4596C108.051 100.791 110.923 105.357 113.957 109.797C114.281 110.233 114.505 110.735 114.614 111.267C114.723 111.799 114.713 112.349 114.587 112.877C89.7866 102.241 63.9781 96.0273 36.7744 92.3169C40.1861 90.0655 43.0757 88.1833 45.9653 86.22C61.4624 75.4161 76.3896 63.8162 90.6867 51.4668C91.929 50.4131 93.2613 49.4675 94.5576 48.4678L94.7736 48.2787C100.751 42.0557 107.952 37.1025 113.948 30.3392C112.876 35.4275 111.823 40.5067 110.725 45.586C109.969 49.0982 110.437 59.707 112.624 60.2114C114.812 60.7157 133.104 20.1087 135.939 14.3269C136.596 12.9851 137.28 11.6252 137.83 10.2473C139 7.31145 139.333 4.39358 136.929 1.85395C134.526 -0.685676 131.789 -0.16334 128.981 0.764254C119.457 3.91627 109.978 7.2304 100.391 10.2113C94.8186 11.9404 75.1855 16.8396 75.9506 20.64C76.7158 24.4404 96.2229 23.3417 103.163 23.4948L86.6088 37.2376C79.0653 44.2982 40.3842 73.711 33.4977 79.1595C31.5443 80.7085 31.3553 79.2225 31.3013 77.7006C31.1393 73.0716 30.9712 68.4456 30.7972 63.8227C30.6711 62.3367 30.5362 60.8508 30.4102 59.3198C29.1108 52.2488 28.3047 45.096 27.9976 37.9131L27.6016 34.3108C26.2873 28.9073 24.982 23.5038 23.3347 16.7675C21.581 22.1596 20.1738 27.6583 19.1218 33.2301C18.8157 34.8601 16.6822 87.724 14.1257 88.5435C9.81909 89.8209 5.74186 91.7723 2.04522 94.3252C0.577912 95.3879 -1.11449 96.4866 0.982948 98.4949C4.36374 100.04 8.07715 100.715 11.7852 100.458C17.9605 100.287 18.1405 100.386 17.8705 106.573C17.2494 120.676 18.0595 134.734 18.7707 148.801C19.0407 154.205 20.742 159.23 22.2184 164.498C25.216 159.995 26.1972 154.898 27.1874 149.855C29.996 135.536 30.3381 120.982 30.9773 106.474C31.1123 103.313 31.9674 101.971 35.1901 102.953C36.0453 103.205 36.9905 103.178 37.8907 103.376C62.5648 108.96 87.0949 115.084 111.121 123.063C112.678 123.585 114.605 123.72 115.496 125.512C106.602 131.186 88.1392 134.455 87.518 140.822C90.0116 143.731 95.0976 142.695 98.5273 142.011C115.361 138.625 132.5 136.472 148.713 130.393C153.592 128.547 154.195 126.107 151.089 121.829Z" fill="#FF3F84"/>
</svg>
